<svg width="19" height="19" viewBox="0 0 19 19" fill="none" xmlns="http://www.w3.org/2000/svg">
<path d="M13.9925 12.2736C13.4221 12.2736 12.9116 12.4988 12.5213 12.8516L7.16942 9.73656C7.20695 9.56392 7.23698 9.39128 7.23698 9.21113C7.23698 9.03098 7.20695 8.85834 7.16942 8.6857L12.4613 5.60066C12.8666 5.97597 13.3995 6.20866 13.9925 6.20866C14.5898 6.20866 15.1625 5.97141 15.5848 5.54911C16.0071 5.1268 16.2444 4.55404 16.2444 3.95681C16.2444 3.35958 16.0071 2.78681 15.5848 2.36451C15.1625 1.9422 14.5898 1.70496 13.9925 1.70496C13.3953 1.70496 12.8225 1.9422 12.4002 2.36451C11.9779 2.78681 11.7407 3.35958 11.7407 3.95681C11.7407 4.13696 11.7707 4.3096 11.8082 4.48224L6.51639 7.56728C6.11105 7.19197 5.57812 6.95928 4.98513 6.95928C4.3879 6.95928 3.81513 7.19653 3.39283 7.61883C2.97052 8.04113 2.73328 8.6139 2.73328 9.21113C2.73328 9.80836 2.97052 10.3811 3.39283 10.8034C3.81513 11.2257 4.3879 11.463 4.98513 11.463C5.57812 11.463 6.11105 11.2303 6.51639 10.855L11.8608 13.97C11.8233 14.1277 11.8007 14.2928 11.8007 14.4655C11.8007 15.6739 12.784 16.6497 13.9925 16.6497C15.201 16.6497 16.1843 15.6739 16.1843 14.4655C16.1843 13.8841 15.9534 13.3267 15.5424 12.9156C15.1313 12.5046 14.5738 12.2736 13.9925 12.2736Z" fill="#4D4A48"/>
</svg>
