<svg width="32" height="32" viewBox="0 0 32 32" fill="none" xmlns="http://www.w3.org/2000/svg">
<path d="M32 31.7214L31.2471 26.2079C29.2894 26.359 27.8588 25.9562 26.9553 24.9995C26.0518 24.0428 25.4996 22.7589 25.2988 21.1476C25.098 19.5364 25.0478 17.7992 25.1482 15.9362H32V0H19.1247L19.1247 18.9573C19.1247 23.5897 20.2792 27.0639 22.5882 29.3801C24.9475 31.6962 28.0847 32.4767 32 31.7214ZM12.8753 31.7214L12.1224 26.2079C10.1647 26.359 8.73412 25.9562 7.83059 24.9995C6.92706 24.0428 6.3749 22.7589 6.17412 21.1476C5.97333 19.5364 5.92314 17.7992 6.02353 15.9362H12.8753L12.8753 0H0L0 18.9573C0 23.5897 1.15451 27.0639 3.46353 29.3801C5.82275 31.6962 8.96 32.4767 12.8753 31.7214Z" fill="white"/>
</svg>
