<svg width="19" height="19" viewBox="0 0 19 19" fill="none" xmlns="http://www.w3.org/2000/svg">
<g clip-path="url(#clip0_19_556)">
<path d="M9.97035 3.58154C6.21727 3.58154 3.01213 5.91596 1.71356 9.21117C3.01213 12.5064 6.21727 14.8408 9.97035 14.8408C13.7234 14.8408 16.9286 12.5064 18.2271 9.21117C16.9286 5.91596 13.7234 3.58154 9.97035 3.58154ZM9.97035 12.9643C7.89865 12.9643 6.21727 11.2829 6.21727 9.21117C6.21727 7.13947 7.89865 5.45809 9.97035 5.45809C12.0421 5.45809 13.7234 7.13947 13.7234 9.21117C13.7234 11.2829 12.0421 12.9643 9.97035 12.9643ZM9.97035 6.95932C8.72433 6.95932 7.7185 7.96515 7.7185 9.21117C7.7185 10.4572 8.72433 11.463 9.97035 11.463C11.2164 11.463 12.2222 10.4572 12.2222 9.21117C12.2222 7.96515 11.2164 6.95932 9.97035 6.95932Z" fill="#4D4A48"/>
</g>
<defs>
<clipPath id="clip0_19_556">
<rect width="18.0148" height="18.0148" fill="white" transform="translate(0.962952 0.203735)"/>
</clipPath>
</defs>
</svg>
