<svg width="80" height="80" viewBox="0 0 80 80" fill="none" xmlns="http://www.w3.org/2000/svg">
<g filter="url(#filter0_i_8_97)">
<path d="M28.6667 75L22.3333 64.3333L10.3333 61.6667L11.5 49.3333L3.33334 40L11.5 30.6667L10.3333 18.3333L22.3333 15.6667L28.6667 5L40 9.83333L51.3333 5L57.6667 15.6667L69.6667 18.3333L68.5 30.6667L76.6667 40L68.5 49.3333L69.6667 61.6667L57.6667 64.3333L51.3333 75L40 70.1667L28.6667 75ZM36.5 51.8333L55.3333 33L50.6667 28.1667L36.5 42.3333L29.3333 35.3333L24.6667 40L36.5 51.8333Z" fill="#211D1A"/>
</g>
<defs>
<filter id="filter0_i_8_97" x="3.33334" y="5" width="73.3333" height="72" filterUnits="userSpaceOnUse" color-interpolation-filters="sRGB">
<feFlood flood-opacity="0" result="BackgroundImageFix"/>
<feBlend mode="normal" in="SourceGraphic" in2="BackgroundImageFix" result="shape"/>
<feColorMatrix in="SourceAlpha" type="matrix" values="0 0 0 0 0 0 0 0 0 0 0 0 0 0 0 0 0 0 127 0" result="hardAlpha"/>
<feOffset dy="2"/>
<feGaussianBlur stdDeviation="1"/>
<feComposite in2="hardAlpha" operator="arithmetic" k2="-1" k3="1"/>
<feColorMatrix type="matrix" values="0 0 0 0 0.234167 0 0 0 0 0.234167 0 0 0 0 0.234167 0 0 0 0.5 0"/>
<feBlend mode="normal" in2="shape" result="effect1_innerShadow_8_97"/>
</filter>
</defs>
</svg>
